<?xml version="1.0" encoding="UTF-8" standalone="no"?>
<!-- Creator: CorelDRAW -->

<svg
   xmlns:dc="http://purl.org/dc/elements/1.1/"
   xmlns:cc="http://creativecommons.org/ns#"
   xmlns:rdf="http://www.w3.org/1999/02/22-rdf-syntax-ns#"
   xmlns:svg="http://www.w3.org/2000/svg"
   xmlns="http://www.w3.org/2000/svg"
   xmlns:xlink="http://www.w3.org/1999/xlink"
   xmlns:sodipodi="http://sodipodi.sourceforge.net/DTD/sodipodi-0.dtd"
   xmlns:inkscape="http://www.inkscape.org/namespaces/inkscape"
   xml:space="preserve"
   width="1000px"
   height="1000px"
   shape-rendering="geometricPrecision"
   text-rendering="geometricPrecision"
   image-rendering="optimizeQuality"
   fill-rule="evenodd"
   clip-rule="evenodd"
   viewBox="0 0 1000 1000"
   id="svg2888"
   sodipodi:version="0.32"
   inkscape:version="0.48.0 r9654"
   sodipodi:docname="Life_Preserver.svg"
   inkscape:output_extension="org.inkscape.output.svg.inkscape"
   version="1.1"><metadata
   id="metadata2946"><rdf:RDF><cc:Work
       rdf:about=""><dc:format>image/svg+xml</dc:format><dc:type
         rdf:resource="http://purl.org/dc/dcmitype/StillImage" /></cc:Work></rdf:RDF></metadata><sodipodi:namedview
   inkscape:window-height="694"
   inkscape:window-width="1360"
   inkscape:pageshadow="2"
   inkscape:pageopacity="0.0"
   guidetolerance="10.0"
   gridtolerance="10.0"
   objecttolerance="10.0"
   borderopacity="1.0"
   bordercolor="#666666"
   pagecolor="#ffffff"
   id="base"
   inkscape:zoom="0.26657926"
   inkscape:cx="776.23723"
   inkscape:cy="25.520512"
   inkscape:window-x="0"
   inkscape:window-y="24"
   inkscape:current-layer="svg2888"
   showgrid="false"
   inkscape:window-maximized="0" />
 <defs
   id="defs2890"><linearGradient
   id="linearGradient10797"><stop
     style="stop-color:#ffffff;stop-opacity:1;"
     offset="0"
     id="stop10799" /><stop
     style="stop-color:#ffffff;stop-opacity:0;"
     offset="1"
     id="stop10801" /></linearGradient>
   <radialGradient
   id="id0"
   gradientUnits="userSpaceOnUse"
   cx="444.589"
   cy="502.321"
   r="1063.56"
   fx="444.589"
   fy="502.321">
    <stop
   offset="0"
   stop-color="#DA251D"
   id="stop2893" />
    <stop
   offset="0.278431"
   stop-color="#DA251D"
   id="stop2895" />
    <stop
   offset="0.568627"
   stop-color="#E7785F"
   id="stop2897" />
    <stop
   offset="1"
   stop-color="#DA251D"
   id="stop2899" />
    <stop
   offset="1"
   stop-color="#DA251D"
   id="stop2901" />
   </radialGradient>
   <linearGradient
   id="id1"
   gradientUnits="userSpaceOnUse"
   x1="618.768"
   y1="157.482"
   x2="741.732"
   y2="375.85">
    <stop
   offset="0"
   stop-color="white"
   id="stop2904" />
    <stop
   offset="0.541176"
   stop-color="#DEDEDD"
   id="stop2906" />
    <stop
   offset="1"
   stop-color="#DEDEDD"
   id="stop2908" />
   </linearGradient>
   <linearGradient
   id="id2"
   gradientUnits="userSpaceOnUse"
   x1="271.338"
   y1="846.924"
   x2="146.524"
   y2="629.026">
    <stop
   offset="0"
   stop-color="white"
   id="stop2911" />
    <stop
   offset="0.541176"
   stop-color="#DEDEDD"
   id="stop2913" />
    <stop
   offset="1"
   stop-color="#DEDEDD"
   id="stop2915" />
   </linearGradient>
   <linearGradient
   id="id3"
   gradientUnits="userSpaceOnUse"
   x1="789.194"
   y1="675.572"
   x2="571.296"
   y2="800.388">
    <stop
   offset="0"
   stop-color="white"
   id="stop2918" />
    <stop
   offset="0.541176"
   stop-color="#DEDEDD"
   id="stop2920" />
    <stop
   offset="1"
   stop-color="#DEDEDD"
   id="stop2922" />
   </linearGradient>
   <linearGradient
   id="id4"
   gradientUnits="userSpaceOnUse"
   x1="99.9851"
   y1="329.07"
   x2="317.886"
   y2="204.252">
    <stop
   offset="0"
   stop-color="white"
   id="stop2925" />
    <stop
   offset="0.541176"
   stop-color="#DEDEDD"
   id="stop2927" />
    <stop
   offset="1"
   stop-color="#DEDEDD"
   id="stop2929" />
   </linearGradient>
 
  <metadata
   id="CorelCorpID_0Corel-Layer" />
  
  
  
  
  
  
 <linearGradient
   inkscape:collect="always"
   xlink:href="#id4"
   id="linearGradient2950"
   gradientUnits="userSpaceOnUse"
   x1="99.9851"
   y1="329.07"
   x2="317.886"
   y2="204.252" /><linearGradient
   inkscape:collect="always"
   xlink:href="#id3"
   id="linearGradient2953"
   gradientUnits="userSpaceOnUse"
   x1="789.194"
   y1="675.572"
   x2="571.296"
   y2="800.388" /><linearGradient
   inkscape:collect="always"
   xlink:href="#id2"
   id="linearGradient2956"
   gradientUnits="userSpaceOnUse"
   x1="271.338"
   y1="846.924"
   x2="146.524"
   y2="629.026" /><linearGradient
   inkscape:collect="always"
   xlink:href="#id1"
   id="linearGradient2959"
   gradientUnits="userSpaceOnUse"
   x1="618.768"
   y1="157.482"
   x2="741.732"
   y2="375.85" /><radialGradient
   inkscape:collect="always"
   xlink:href="#id0"
   id="radialGradient10815"
   gradientUnits="userSpaceOnUse"
   cx="444.589"
   cy="502.321"
   fx="444.589"
   fy="502.321"
   r="1063.56"
   gradientTransform="matrix(0.99110455,0,0,0.99110455,59.376598,2.1403061)" /><linearGradient
   gradientTransform="translate(-143.46284,4.06416)"
   gradientUnits="userSpaceOnUse"
   xlink:href="#linearGradient3339"
   id="linearGradient2655"
   y2="61.798298"
   x2="58.95916"
   y1="61.798298"
   x1="28.429483" /><radialGradient
   gradientTransform="matrix(1.233976,-0.151603,0.190797,1.552993,-247.6349,-320.152)"
   gradientUnits="userSpaceOnUse"
   xlink:href="#linearGradient3261"
   id="radialGradient3267"
   fy="709.6579"
   fx="479.68311"
   r="5.0058851"
   cy="709.6579"
   cx="479.68311" /><linearGradient
   gradientTransform="translate(-0.120047,0)"
   gradientUnits="userSpaceOnUse"
   xlink:href="#linearGradient3219"
   id="linearGradient3243"
   y2="745.30084"
   x2="517.02167"
   y1="705.48438"
   x1="517.02167" /><linearGradient
   gradientTransform="matrix(-1,0,0,1,983.3261,0)"
   gradientUnits="userSpaceOnUse"
   xlink:href="#linearGradient3219"
   id="linearGradient3240"
   y2="745.30084"
   x2="517.02167"
   y1="705.48438"
   x1="517.02167" /><radialGradient
   gradientTransform="matrix(0,2.023783,-1.958054,0,1805.23,-312.4948)"
   gradientUnits="userSpaceOnUse"
   xlink:href="#linearGradient3205"
   id="radialGradient3211"
   fy="670.92523"
   fx="491.52231"
   r="36.426601"
   cy="670.92523"
   cx="491.52231" /><linearGradient
   gradientUnits="userSpaceOnUse"
   xlink:href="#linearGradient3197"
   id="linearGradient3203"
   y2="66.310989"
   x2="83.28125"
   y1="123.09795"
   x1="83.28125" /><filter
   id="filter3385"><feGaussianBlur
     id="feGaussianBlur3387"
     stdDeviation="0.14607691" /></filter><radialGradient
   gradientTransform="matrix(0,1.655849,-1.639188,0,152.1501,-32.92373)"
   gradientUnits="userSpaceOnUse"
   xlink:href="#linearGradient3327"
   id="radialGradient3333"
   fy="59.728882"
   fx="53.60223"
   r="17.834057"
   cy="59.728882"
   cx="53.60223" /><linearGradient
   gradientUnits="userSpaceOnUse"
   xlink:href="#linearGradient3319"
   id="linearGradient3325"
   y2="82.333244"
   x2="41.945538"
   y1="46.665127"
   x1="41.945538" /><linearGradient
   id="linearGradient3319"><stop
     id="stop3321"
     offset="0"
     style="stop-color:#7d491f;stop-opacity:1" /><stop
     id="stop3323"
     offset="1"
     style="stop-color:#926600;stop-opacity:1" /></linearGradient><linearGradient
   id="linearGradient3327"><stop
     id="stop3329"
     offset="0"
     style="stop-color:#ffffff;stop-opacity:1" /><stop
     id="stop3335"
     offset="0.5"
     style="stop-color:#fdd99a;stop-opacity:1" /><stop
     id="stop3331"
     offset="1"
     style="stop-color:#c39539;stop-opacity:1" /></linearGradient><linearGradient
   id="linearGradient3339"><stop
     id="stop3341"
     offset="0"
     style="stop-color:#e8e8e8;stop-opacity:1" /><stop
     id="stop3347"
     offset="0.5"
     style="stop-color:#ffffff;stop-opacity:1" /><stop
     id="stop3343"
     offset="1"
     style="stop-color:#e8e8e8;stop-opacity:1" /></linearGradient><linearGradient
   id="linearGradient3197"><stop
     id="stop3199"
     offset="0"
     style="stop-color:#002f32;stop-opacity:1" /><stop
     id="stop3201"
     offset="1"
     style="stop-color:#045b04;stop-opacity:1" /></linearGradient><linearGradient
   id="linearGradient3205"><stop
     id="stop3207"
     offset="0"
     style="stop-color:#2c8300;stop-opacity:1" /><stop
     id="stop3215"
     offset="0.25"
     style="stop-color:#3db800;stop-opacity:1" /><stop
     id="stop3213"
     offset="0.5"
     style="stop-color:#ffffff;stop-opacity:1" /><stop
     id="stop3209"
     offset="1"
     style="stop-color:#69cf35;stop-opacity:1" /></linearGradient><linearGradient
   id="linearGradient3219"><stop
     id="stop3221"
     offset="0"
     style="stop-color:#0e7309;stop-opacity:1" /><stop
     id="stop3223"
     offset="1"
     style="stop-color:#70d13e;stop-opacity:1" /></linearGradient><linearGradient
   id="linearGradient3261"><stop
     id="stop3263"
     offset="0"
     style="stop-color:#ffffff;stop-opacity:0" /><stop
     id="stop3269"
     offset="0.5"
     style="stop-color:#ffffff;stop-opacity:0" /><stop
     id="stop3265"
     offset="1"
     style="stop-color:#ffffff;stop-opacity:1" /></linearGradient><linearGradient
   inkscape:collect="always"
   xlink:href="#linearGradient3197"
   id="linearGradient3573"
   gradientUnits="userSpaceOnUse"
   x1="83.28125"
   y1="123.09795"
   x2="83.28125"
   y2="66.310989" /><radialGradient
   inkscape:collect="always"
   xlink:href="#linearGradient3205"
   id="radialGradient3575"
   gradientUnits="userSpaceOnUse"
   gradientTransform="matrix(0,2.023783,-1.958054,0,1805.23,-312.4948)"
   cx="491.52231"
   cy="670.92523"
   fx="491.52231"
   fy="670.92523"
   r="36.426601" /><linearGradient
   inkscape:collect="always"
   xlink:href="#linearGradient3219"
   id="linearGradient3577"
   gradientUnits="userSpaceOnUse"
   gradientTransform="translate(-0.120047,0)"
   x1="517.02167"
   y1="705.48438"
   x2="517.02167"
   y2="745.30084" /><linearGradient
   inkscape:collect="always"
   xlink:href="#linearGradient3219"
   id="linearGradient3579"
   gradientUnits="userSpaceOnUse"
   gradientTransform="matrix(-1,0,0,1,983.3261,0)"
   x1="517.02167"
   y1="705.48438"
   x2="517.02167"
   y2="745.30084" /><radialGradient
   inkscape:collect="always"
   xlink:href="#linearGradient3261"
   id="radialGradient3581"
   gradientUnits="userSpaceOnUse"
   gradientTransform="matrix(1.233976,-0.151603,0.190797,1.552993,-247.6349,-320.152)"
   cx="479.68311"
   cy="709.6579"
   fx="479.68311"
   fy="709.6579"
   r="5.0058851" /><radialGradient
   inkscape:collect="always"
   xlink:href="#linearGradient3327"
   id="radialGradient3583"
   gradientUnits="userSpaceOnUse"
   gradientTransform="matrix(0,1.655849,-1.639188,0,152.1501,-32.92373)"
   cx="53.60223"
   cy="59.728882"
   fx="53.60223"
   fy="59.728882"
   r="17.834057" /><linearGradient
   inkscape:collect="always"
   xlink:href="#linearGradient3319"
   id="linearGradient3585"
   gradientUnits="userSpaceOnUse"
   x1="41.945538"
   y1="46.665127"
   x2="41.945538"
   y2="82.333244" /><linearGradient
   inkscape:collect="always"
   xlink:href="#linearGradient3339"
   id="linearGradient3587"
   gradientUnits="userSpaceOnUse"
   gradientTransform="translate(-143.46284,4.06416)"
   x1="28.429483"
   y1="61.798298"
   x2="58.95916"
   y2="61.798298" /><linearGradient
   inkscape:collect="always"
   xlink:href="#linearGradient3197"
   id="linearGradient3611"
   gradientUnits="userSpaceOnUse"
   x1="83.28125"
   y1="123.09795"
   x2="83.28125"
   y2="66.310989" /><radialGradient
   inkscape:collect="always"
   xlink:href="#linearGradient3205"
   id="radialGradient3613"
   gradientUnits="userSpaceOnUse"
   gradientTransform="matrix(0,2.023783,-1.958054,0,1805.23,-312.4948)"
   cx="491.52231"
   cy="670.92523"
   fx="491.52231"
   fy="670.92523"
   r="36.426601" /><linearGradient
   inkscape:collect="always"
   xlink:href="#linearGradient3219"
   id="linearGradient3615"
   gradientUnits="userSpaceOnUse"
   gradientTransform="translate(-0.120047,0)"
   x1="517.02167"
   y1="705.48438"
   x2="517.02167"
   y2="745.30084" /><linearGradient
   inkscape:collect="always"
   xlink:href="#linearGradient3219"
   id="linearGradient3617"
   gradientUnits="userSpaceOnUse"
   gradientTransform="matrix(-1,0,0,1,983.3261,0)"
   x1="517.02167"
   y1="705.48438"
   x2="517.02167"
   y2="745.30084" /><radialGradient
   inkscape:collect="always"
   xlink:href="#linearGradient3261"
   id="radialGradient3619"
   gradientUnits="userSpaceOnUse"
   gradientTransform="matrix(1.233976,-0.151603,0.190797,1.552993,-247.6349,-320.152)"
   cx="479.68311"
   cy="709.6579"
   fx="479.68311"
   fy="709.6579"
   r="5.0058851" /><radialGradient
   inkscape:collect="always"
   xlink:href="#linearGradient3327"
   id="radialGradient3621"
   gradientUnits="userSpaceOnUse"
   gradientTransform="matrix(0,1.655849,-1.639188,0,152.1501,-32.92373)"
   cx="53.60223"
   cy="59.728882"
   fx="53.60223"
   fy="59.728882"
   r="17.834057" /><linearGradient
   inkscape:collect="always"
   xlink:href="#linearGradient3319"
   id="linearGradient3623"
   gradientUnits="userSpaceOnUse"
   x1="41.945538"
   y1="46.665127"
   x2="41.945538"
   y2="82.333244" /><radialGradient
   inkscape:collect="always"
   xlink:href="#linearGradient3327"
   id="radialGradient3626"
   gradientUnits="userSpaceOnUse"
   gradientTransform="matrix(0,16.977812,-16.806983,0,1446.7796,-659.76769)"
   cx="53.60223"
   cy="59.728882"
   fx="53.60223"
   fy="59.728882"
   r="17.834057" /><linearGradient
   inkscape:collect="always"
   xlink:href="#linearGradient3319"
   id="linearGradient3628"
   gradientUnits="userSpaceOnUse"
   x1="41.945538"
   y1="46.665127"
   x2="41.945538"
   y2="82.333244"
   gradientTransform="matrix(10.253237,0,0,10.253237,-113.25141,-322.19288)" /><radialGradient
   inkscape:collect="always"
   xlink:href="#linearGradient3261"
   id="radialGradient3631"
   gradientUnits="userSpaceOnUse"
   gradientTransform="matrix(8.4571537,-1.0390233,1.3076426,10.643562,-4566.7436,-6555.4297)"
   cx="479.68311"
   cy="709.6579"
   fx="479.68311"
   fy="709.6579"
   r="5.0058851" /><linearGradient
   inkscape:collect="always"
   xlink:href="#linearGradient3219"
   id="linearGradient3637"
   gradientUnits="userSpaceOnUse"
   gradientTransform="matrix(-6.8535804,0,0,6.8535804,3869.7466,-4361.2422)"
   x1="517.02167"
   y1="705.48438"
   x2="517.02167"
   y2="745.30084" /><linearGradient
   inkscape:collect="always"
   xlink:href="#linearGradient3219"
   id="linearGradient3640"
   gradientUnits="userSpaceOnUse"
   gradientTransform="matrix(6.8535804,0,0,6.8535804,-2870.3807,-4361.2422)"
   x1="517.02167"
   y1="705.48438"
   x2="517.02167"
   y2="745.30084" /><radialGradient
   inkscape:collect="always"
   xlink:href="#linearGradient3205"
   id="radialGradient3643"
   gradientUnits="userSpaceOnUse"
   gradientTransform="matrix(0,13.87016,-13.419681,0,9502.731,-6502.9504)"
   cx="491.52231"
   cy="670.92523"
   fx="491.52231"
   fy="670.92523"
   r="36.426601" /><linearGradient
   inkscape:collect="always"
   xlink:href="#linearGradient3197"
   id="linearGradient3646"
   gradientUnits="userSpaceOnUse"
   x1="83.28125"
   y1="123.09795"
   x2="83.28125"
   y2="66.310989"
   gradientTransform="matrix(6.8535804,0,0,6.8535804,196.92998,4.0334371)" /><linearGradient
   inkscape:collect="always"
   xlink:href="#linearGradient3219"
   id="linearGradient3661"
   gradientUnits="userSpaceOnUse"
   gradientTransform="matrix(6.8535804,0,0,6.8535804,-2870.3807,-4361.2422)"
   x1="517.02167"
   y1="705.48438"
   x2="517.02167"
   y2="745.30084" /><linearGradient
   inkscape:collect="always"
   xlink:href="#linearGradient3219"
   id="linearGradient3663"
   gradientUnits="userSpaceOnUse"
   gradientTransform="matrix(-6.8535804,0,0,6.8535804,3869.7466,-4361.2422)"
   x1="517.02167"
   y1="705.48438"
   x2="517.02167"
   y2="745.30084" /><radialGradient
   inkscape:collect="always"
   xlink:href="#linearGradient3261"
   id="radialGradient3665"
   gradientUnits="userSpaceOnUse"
   gradientTransform="matrix(8.4571537,-1.0390233,1.3076426,10.643562,-4566.7436,-6555.4297)"
   cx="479.68311"
   cy="709.6579"
   fx="479.68311"
   fy="709.6579"
   r="5.0058851" /><linearGradient
   inkscape:collect="always"
   xlink:href="#linearGradient3339"
   id="linearGradient3667"
   gradientUnits="userSpaceOnUse"
   gradientTransform="translate(-143.46284,4.06416)"
   x1="28.429483"
   y1="61.798298"
   x2="58.95916"
   y2="61.798298" /><radialGradient
   inkscape:collect="always"
   xlink:href="#linearGradient3261"
   id="radialGradient3674"
   gradientUnits="userSpaceOnUse"
   gradientTransform="matrix(8.4571537,-1.0390233,1.3076426,10.643562,-4566.7436,-6555.4297)"
   cx="479.68311"
   cy="709.6579"
   fx="479.68311"
   fy="709.6579"
   r="5.0058851" /><linearGradient
   inkscape:collect="always"
   xlink:href="#linearGradient3219"
   id="linearGradient3680"
   gradientUnits="userSpaceOnUse"
   gradientTransform="matrix(-6.8535804,0,0,6.8535804,3869.7466,-4361.2422)"
   x1="517.02167"
   y1="705.48438"
   x2="517.02167"
   y2="745.30084" /><linearGradient
   inkscape:collect="always"
   xlink:href="#linearGradient3219"
   id="linearGradient3683"
   gradientUnits="userSpaceOnUse"
   gradientTransform="matrix(6.8535804,0,0,6.8535804,-2870.3807,-4361.2422)"
   x1="517.02167"
   y1="705.48438"
   x2="517.02167"
   y2="745.30084" /></defs>
 <g
   id="g3685"><path
     inkscape:connector-curvature="0"
     d="m 504.26996,420.1742 c -148.27345,0 -268.57469,118.89228 -268.57469,265.57624 l 0,41.97818 c 0,41.48384 43.00869,128.50464 198.11131,128.50464 l 140.71257,0 c 155.09913,0 198.32549,-82.78879 198.32549,-128.50464 l 0,-41.97818 c 0,-146.68402 -120.30124,-265.57624 -268.57468,-265.57624 z"
     style="opacity:0.5;fill:#000000;fill-opacity:1;stroke:none"
     id="path3283" /><path
     inkscape:connector-curvature="0"
     d="m 499.13004,411.6073 c -148.27346,0 -268.57468,118.89226 -268.57468,265.57624 l 0,41.97818 c 0,41.48383 43.00868,128.50463 198.11131,128.50463 l 140.71257,0 c 155.09913,0 198.3255,-82.78878 198.32548,-128.50463 l 0,-41.97818 c 0,-146.684 -120.30122,-265.57624 -268.57468,-265.57624 z"
     style="fill:url(#linearGradient3646);fill-opacity:1;stroke:none"
     id="path2214" /><path
     inkscape:connector-curvature="0"
     d="m 499.12977,426.41583 c -137.82701,0 -249.65263,109.02264 -249.65263,243.52978 l 0,38.49347 c 0,38.04005 39.97858,117.83704 184.15365,117.83704 l 130.79887,0 c 144.17184,0 184.35274,-75.91622 184.35274,-117.83704 l 0,-38.49347 c 0,-134.50714 -111.82562,-243.52978 -249.65263,-243.52978 z"
     style="fill:url(#radialGradient3643);fill-opacity:1;stroke:none"
     id="path3193" /><path
     inkscape:connector-curvature="0"
     d="m 618.97442,476.52359 c 58.00624,62.10783 102.22307,165.15422 115.17792,264.90918"
     style="fill:#000000;fill-opacity:0;fill-rule:evenodd;stroke:url(#linearGradient3683);stroke-width:10.28037071;stroke-linecap:butt;stroke-linejoin:miter;stroke-miterlimit:4;stroke-opacity:1;stroke-dasharray:none"
     id="path3217" /><path
     inkscape:connector-curvature="0"
     d="M 380.39163,476.52359 C 322.38539,538.63142 278.16856,641.67781 265.21371,741.43277"
     style="fill:#000000;fill-opacity:0;fill-rule:evenodd;stroke:url(#linearGradient3680);stroke-width:10.28037071;stroke-linecap:butt;stroke-linejoin:miter;stroke-miterlimit:4;stroke-opacity:1;stroke-dasharray:none"
     id="path3227" /><path
     inkscape:connector-curvature="0"
     d="m 453.26705,505.31808 c -15.78174,13.5302 -34.00904,24.19794 -25.50368,56.76622 -38.79627,-7.85845 -68.19114,-60.92908 -43.60303,-98.7239 l 69.10671,41.95768 z"
     style="fill:#c5ffbd;fill-opacity:1;fill-rule:evenodd;stroke:#52aa5d;stroke-width:6.85358047px;stroke-linecap:butt;stroke-linejoin:miter;stroke-opacity:1"
     id="path3249" /><path
     inkscape:connector-curvature="0"
     d="m 499.68322,591.80819 -43.33739,-75.06255 86.67477,0 -43.33738,75.06255 z"
     style="fill:#ff2600;fill-opacity:1;stroke:#800000;stroke-width:6.85358286;stroke-linecap:square;stroke-linejoin:miter;stroke-miterlimit:4;stroke-opacity:1;stroke-dasharray:none;stroke-dashoffset:0"
     id="path3245" /><path
     inkscape:connector-curvature="0"
     d="m 543.28615,505.31808 c 19.07256,10.23939 41.41331,23.37524 32.90795,55.94352 33.86011,-14.44002 60.78687,-60.10638 36.19876,-97.9012 l -69.10671,41.95768 z"
     style="fill:#a0ff74;fill-opacity:1;fill-rule:evenodd;stroke:#5eaa5e;stroke-width:6.85358047px;stroke-linecap:butt;stroke-linejoin:miter;stroke-opacity:1"
     id="path3247" /><path
     inkscape:connector-curvature="0"
     d="m 385.89279,468.17606 61.46805,37.48052 c -6.63941,5.99688 -13.49299,11.27921 -18.84735,19.06152 -5.13525,7.91863 -6.73988,18.7895 -4.49766,32.34033 -16.2373,-4.99303 -30.7967,-18.12552 -38.76556,-34.69625 -8.24664,-17.14834 -9.24075,-37.03071 0.42835,-54.18612 z"
     style="fill:url(#radialGradient3674);fill-opacity:1;fill-rule:evenodd;stroke:none"
     id="path3251" /></g><path
   style="fill:url(#radialGradient10815);stroke:#1f1a17;stroke-width:14.86656857;stroke-linecap:round;stroke-linejoin:round;stroke-miterlimit:4;stroke-dasharray:none"
   d="m 500.01549,77.43328 c -233.33773,0 -422.582206,189.2135 -422.582206,422.55123 0,233.33575 189.245476,422.58224 422.582206,422.58221 233.33772,0 422.55125,-189.24548 422.55123,-422.58221 0,-233.33673 -189.2135,-422.55123 -422.55123,-422.55123 z m -0.27875,175.7662 c 137.13523,0 248.42655,111.29133 248.42655,248.42655 0,137.13522 -111.29133,248.45752 -248.42655,248.45752 -137.1352,2e-5 -248.45752,-111.3223 -248.45752,-248.45752 0,-137.13522 111.3223,-248.42655 248.45752,-248.42655 z"
   id="path2935"
   inkscape:connector-curvature="0" /><g
   id="g10864"
   transform="translate(59.28125,-6.1875043)"><path
     id="path2937"
     d="m 583.826,319.535 43.5485,43.5485 c 5.8004,5.79922 15.2835,5.80394 21.0874,0 l 128.208,-128.212 c 5.80394,-5.79922 5.79922,-15.2906 0.005,-21.0862 l -43.5508,-43.5449 c -5.79331,-5.79449 -15.2917,-5.79449 -21.0862,0 l -128.21,128.21 c -5.79567,5.79449 -5.8004,15.287 -10e-4,21.0862 l 0,-0.001 -4.4e-4,-4.2e-4 z"
     style="fill:url(#linearGradient2959);stroke:#1f1a17;stroke-width:15;stroke-linecap:round;stroke-linejoin:bevel;stroke-miterlimit:4;stroke-opacity:1;stroke-dasharray:none;marker-start:none"
     inkscape:connector-curvature="0" /><path
     d="m 305.358,685.108 -43.5508,-43.552 c -5.80158,-5.79567 -15.2858,-5.8004 -21.0886,10e-4 l -128.208,128.212 c -5.80276,5.79685 -5.79804,15.2894 -0.005,21.0862 l 43.552,43.5449 c 5.79331,5.79449 15.2917,5.79449 21.0839,0.001 l 128.211,-128.21 c 5.79449,-5.79685 5.8004,-15.2894 0.005,-21.0851 l 0,10e-4 5e-4,4.6e-4 z"
     id="path2939"
     style="fill:url(#linearGradient2956);stroke:#1f1a17;stroke-width:15;stroke-linecap:round;stroke-linejoin:bevel;stroke-miterlimit:4;stroke-dasharray:none"
     inkscape:connector-curvature="0" /><path
     d="m 627.375,641.556 -43.5496,43.5485 c -5.79685,5.79922 -5.8004,15.2835 0.001,21.0874 l 128.212,128.208 c 5.79922,5.80276 15.2906,5.79804 21.0851,0.004 l 43.5485,-43.5496 c 5.79213,-5.79331 5.79331,-15.2906 0,-21.0862 l -128.211,-128.21 c -5.79449,-5.79567 -15.287,-5.8004 -21.0862,-10e-4 l 0,0 2e-5,-4.6e-4 z"
     id="path2941"
     style="fill:url(#linearGradient2953);stroke:#1f1a17;stroke-width:15;stroke-linecap:round;stroke-linejoin:bevel;stroke-miterlimit:4;stroke-dasharray:none"
     inkscape:connector-curvature="0" /><path
     d="m 261.805,363.083 43.5496,-43.5485 c 5.79685,-5.79922 5.80158,-15.2847 -0.001,-21.0862 l -128.212,-128.209 c -5.79685,-5.80276 -15.2894,-5.79922 -21.0862,-0.006 l -43.5449,43.552 c -5.79449,5.79449 -5.79567,15.2917 0,21.0862 l 128.21,128.211 c 5.79567,5.79449 15.287,5.80158 21.0862,0 l -10e-4,0 -3.4e-4,4.1e-4 z"
     id="path2943"
     style="fill:url(#linearGradient2950);stroke:#1f1a17;stroke-width:15;stroke-linecap:round;stroke-linejoin:bevel;stroke-miterlimit:4;stroke-dasharray:none"
     inkscape:connector-curvature="0" /></g>
<path
   id="path2309"
   style="fill:url(#radialGradient3626);fill-opacity:1;stroke:url(#linearGradient3628);stroke-width:13.70716095;stroke-linecap:square;stroke-linejoin:miter;stroke-miterlimit:4;stroke-opacity:1;stroke-dasharray:none;stroke-dashoffset:0"
   d="m 676.24784,339.13254 c -0.53819,97.41412 -79.3444,176.04572 -176.56489,176.04572 -97.22051,0 -176.02672,-78.82522 -176.00325,-176.04572 -0.0236,-97.2205 78.78274,-176.04572 176.00325,-176.04572 97.22049,0 176.0267,78.82522 176.00323,176.04572 z"
   inkscape:connector-curvature="0" /><g
   transform="matrix(5.8770145,0,0,5.8770145,1085.7071,58.230135)"
   id="g2650"><path
     inkscape:connector-curvature="0"
     d="M -114.53336,60 -85,60 c 0,8.806424 -7.3861,11.684368 -14.768519,11.684368 -7.382421,0 -14.764841,-2.987525 -14.764841,-11.643817 z"
     style="fill:url(#linearGradient3667);fill-opacity:1;fill-rule:evenodd;stroke:#5e292c;stroke-width:1px;stroke-linecap:butt;stroke-linejoin:miter;stroke-opacity:1"
     id="path3337" /><path
     inkscape:connector-curvature="0"
     d="m 29.5,56.46875 c 0.14342,3.88198 1.77783,6.48175 4.3125,8.15625 2.65009,1.75076 6.25124,2.5 9.875,2.5 3.62624,0 7.22636,-0.73206 9.875,-2.46875 2.53451,-1.66186 4.20177,-4.253 4.34375,-8.1875 l -28.40625,0 z m 0.65625,0.46875 27.09375,0 c -0.1355,3.57994 -1.70603,5.95665 -4.125,7.46875 -2.527879,1.580173 -5.97657,2.25 -9.4375,2.25 -3.45855,4e-6 -6.90824,-0.68825 -9.4375,-2.28125 -2.41912,-1.523577 -3.95687,-3.90536 -4.09375,-7.4375 z"
     transform="matrix(1.021129,0,0,1.0337941,-144.08615,1.79573)"
     style="fill:#ffffff;fill-opacity:1;fill-rule:evenodd;stroke:none;filter:url(#filter3385)"
     id="path3360" /><path
     inkscape:connector-curvature="0"
     d="m -115,59.53291 -0.0253,0.5 c 0,4.47029 1.95703,7.59292 4.84375,9.5 2.88672,1.90708 6.64759,2.65625 10.40625,2.65625 3.75618,0 7.54933,-0.73125 10.4375,-2.625 2.88817,-1.89375 4.84375,-5.00795 4.84375,-9.53125 l 0,-0.5 -0.5,0 -29.53125,0 -0.5,0 z m 1.03716,1 28.40625,0 c -0.14198,3.9345 -1.80924,6.52564 -4.34375,8.1875 -2.64864,1.73669 -6.24876,2.46875 -9.875,2.46875 -3.62376,0 -7.22491,-0.74924 -9.875,-2.5 -2.53467,-1.6745 -4.16908,-4.27427 -4.3125,-8.15625 z"
     style="fill:#5e292c;fill-opacity:1;fill-rule:evenodd;stroke:none"
     id="path3375" /></g></svg>